<svg version="1.1" viewBox="0.0 0.0 103.67979002624672 119.03937007874016" fill="none" stroke="none" stroke-linecap="square" stroke-miterlimit="10" xmlns:xlink="http://www.w3.org/1999/xlink" xmlns="http://www.w3.org/2000/svg"><clipPath id="p.0"><path d="m0 0l103.67979 0l0 119.03937l-103.67979 0l0 -119.03937z" clip-rule="nonzero"/></clipPath><g clip-path="url(#p.0)"><path fill="#000000" fill-opacity="0.0" d="m0 0l103.67979 0l0 119.03937l-103.67979 0z" fill-rule="evenodd"/><path fill="#b7b7b7" d="m79.6121 49.650677l0 19.527561l-77.480316 0l0 -19.527561z" fill-rule="evenodd"/><path fill="#b7b7b7" d="m75.353775 51.603348l26.204727 7.81102l-26.204727 7.8110275z" fill-rule="evenodd"/><path stroke="#b7b7b7" stroke-width="4.0" stroke-linejoin="round" stroke-linecap="butt" d="m75.353775 51.603348l26.204727 7.81102l-26.204727 7.8110275z" fill-rule="evenodd"/><path fill="#000000" d="m64.71368 54.626835l30.48819 4.787403l-30.48819 4.7873993z" fill-rule="evenodd"/><path stroke="#000000" stroke-width="3.0" stroke-linejoin="round" stroke-linecap="butt" d="m64.71368 54.626835l30.48819 4.787403l-30.48819 4.7873993z" fill-rule="evenodd"/><path fill="#b7b7b7" d="m51.024998 69.177376l12.346455 0l-12.346455 46.48819z" fill-rule="evenodd"/><path stroke="#b7b7b7" stroke-width="4.0" stroke-linejoin="round" stroke-linecap="butt" d="m51.024998 69.177376l12.346455 0l-12.346455 46.48819z" fill-rule="evenodd"/><path fill="#b7b7b7" d="m41.29402 69.177376l-3.7795258 0l3.7795258 46.48819z" fill-rule="evenodd"/><path stroke="#b7b7b7" stroke-width="4.0" stroke-linejoin="round" stroke-linecap="butt" d="m41.29402 69.177376l-3.7795258 0l3.7795258 46.48819z" fill-rule="evenodd"/><path fill="#b7b7b7" d="m52.463867 66.6578l0 51.527557l-12.346455 0l0 -51.527557z" fill-rule="evenodd"/><path fill="#b7b7b7" d="m51.024998 49.86064l12.346455 0l-12.346455 -46.48819z" fill-rule="evenodd"/><path stroke="#b7b7b7" stroke-width="4.0" stroke-linejoin="round" stroke-linecap="butt" d="m51.024998 49.86064l12.346455 0l-12.346455 -46.48819z" fill-rule="evenodd"/><path fill="#b7b7b7" d="m41.29402 49.86064l-3.7795258 0l3.7795258 -46.48819z" fill-rule="evenodd"/><path stroke="#b7b7b7" stroke-width="4.0" stroke-linejoin="round" stroke-linecap="butt" d="m41.29402 49.86064l-3.7795258 0l3.7795258 -46.48819z" fill-rule="evenodd"/><path fill="#b7b7b7" d="m52.463867 52.380215l0 -51.52756l-12.346455 0l0 51.52756z" fill-rule="evenodd"/><path fill="#b7b7b7" d="m65.67055 36.38617l0 5.5433083l-13.606297 0l0 -5.5433083z" fill-rule="evenodd"/><path stroke="#b7b7b7" stroke-width="1.0" stroke-linejoin="round" stroke-linecap="butt" d="m65.67055 36.38617l0 5.5433083l-13.606297 0l0 -5.5433083z" fill-rule="evenodd"/><path fill="#b7b7b7" d="m65.67055 76.90932l0 5.5433044l-13.606297 0l0 -5.5433044z" fill-rule="evenodd"/><path stroke="#b7b7b7" stroke-width="1.0" stroke-linejoin="round" stroke-linecap="butt" d="m65.67055 76.90932l0 5.5433044l-13.606297 0l0 -5.5433044z" fill-rule="evenodd"/><path fill="#b7b7b7" d="m14.88047 32.333855l0 54.173225l-12.346457 0l0 -54.173225z" fill-rule="evenodd"/><path stroke="#b7b7b7" stroke-width="1.0" stroke-linejoin="round" stroke-linecap="butt" d="m14.88047 32.333855l0 54.173225l-12.346457 0l0 -54.173225z" fill-rule="evenodd"/></g></svg>